<svg width="23" height="32" viewBox="0 0 23 32" fill="none" xmlns="http://www.w3.org/2000/svg">
<path d="M16.6133 22.423C15.6558 23.2417 13.7445 23.8001 11.543 23.8001C8.84098 23.8001 6.57624 22.9589 5.97532 21.8276C5.76042 22.4759 5.71224 23.2181 5.71224 23.692C5.71224 23.692 5.57069 26.0197 7.18966 27.6387C7.18966 26.798 7.87119 26.1165 8.71185 26.1165C10.1527 26.1165 10.151 27.3736 10.1498 28.3935L10.1497 28.4845C10.1497 30.0325 11.0957 31.3595 12.4412 31.9188C12.2341 31.4926 12.1269 31.0247 12.1275 30.5508C12.1275 29.0744 12.9943 28.5247 14.0016 27.8859C14.8031 27.3775 15.6937 26.8127 16.3074 25.6798C16.6379 25.0694 16.8105 24.3861 16.8094 23.692C16.8094 23.2496 16.7407 22.8232 16.6133 22.423Z" fill="#FF5D01"/>
<path d="M15.9183 0.799738C16.179 1.12341 16.3119 1.56013 16.5778 2.43357L22.3863 21.5147C20.2045 20.3824 17.8628 19.5896 15.4419 19.1635L11.66 6.38321C11.6298 6.28128 11.5675 6.19185 11.4823 6.12831C11.397 6.06476 11.2935 6.03051 11.1872 6.03067C11.0809 6.03084 10.9775 6.06542 10.8925 6.12923C10.8075 6.19305 10.7454 6.28267 10.7156 6.3847L6.97943 19.1572C4.54763 19.5812 2.19513 20.3752 0.00378418 21.5117L5.84072 2.42911C6.10748 1.55725 6.2409 1.12122 6.50162 0.798164C6.73179 0.512978 7.03117 0.291499 7.37122 0.154842C7.75635 0 8.21231 0 9.12413 0H13.2931C14.2062 0 14.6627 0 15.0482 0.155104C15.3886 0.292093 15.6881 0.514035 15.9182 0.799738H15.9183Z" fill="white"/>
</svg>
