<svg width="151" height="18" viewBox="0 0 151 18" fill="none" xmlns="http://www.w3.org/2000/svg">
<path d="M9.224 12.416C9.224 13.872 8.808 15 7.976 15.8C7.16 16.6 6.08 17 4.736 17H0.728C0.568 17 0.488 16.92 0.488 16.76V0.439999C0.488 0.279999 0.568 0.199999 0.728 0.199999H4.4C5.856 0.199999 6.992 0.583999 7.808 1.352C8.64 2.104 9.056 3.208 9.056 4.664C9.056 6.392 8.44 7.584 7.208 8.24C7.128 8.288 7.12 8.328 7.184 8.36C7.824 8.744 8.32 9.28 8.672 9.968C9.04 10.656 9.224 11.472 9.224 12.416ZM2.888 2.192C2.824 2.192 2.792 2.224 2.792 2.288V7.376C2.792 7.44 2.824 7.472 2.888 7.472H4.424C5.176 7.472 5.76 7.248 6.176 6.8C6.592 6.336 6.8 5.696 6.8 4.88C6.8 4.032 6.592 3.376 6.176 2.912C5.76 2.432 5.176 2.192 4.424 2.192H2.888ZM4.544 14.984C5.28 14.984 5.856 14.736 6.272 14.24C6.704 13.744 6.92 13.04 6.92 12.128C6.92 11.2 6.712 10.48 6.296 9.968C5.88 9.44 5.304 9.176 4.568 9.176H2.888C2.824 9.176 2.792 9.208 2.792 9.272V14.888C2.792 14.952 2.824 14.984 2.888 14.984H4.544ZM15.1293 4.592C16.2973 4.592 17.2493 4.96 17.9853 5.696C18.7373 6.432 19.1133 7.4 19.1133 8.6V16.76C19.1133 16.92 19.0333 17 18.8733 17H17.0493C16.8893 17 16.8093 16.92 16.8093 16.76V16.232C16.8093 16.2 16.7933 16.176 16.7613 16.16C16.7453 16.144 16.7213 16.152 16.6893 16.184C16.1293 16.856 15.3053 17.192 14.2173 17.192C13.3053 17.192 12.4973 16.936 11.7933 16.424C11.1053 15.896 10.7613 14.968 10.7613 13.64C10.7613 12.248 11.1773 11.232 12.0093 10.592C12.8573 9.936 13.9613 9.608 15.3213 9.608H16.7133C16.7773 9.608 16.8093 9.576 16.8093 9.512V8.816C16.8093 8.144 16.6493 7.608 16.3293 7.208C16.0093 6.792 15.5933 6.584 15.0813 6.584C14.6813 6.584 14.3453 6.72 14.0733 6.992C13.8013 7.264 13.6413 7.616 13.5933 8.048C13.5933 8.208 13.5133 8.288 13.3533 8.288H11.4093C11.2493 8.288 11.1693 8.208 11.1693 8.048C11.2493 7.024 11.6573 6.192 12.3933 5.552C13.1293 4.912 14.0413 4.592 15.1293 4.592ZM14.7213 15.176C15.2813 15.176 15.7693 15 16.1853 14.648C16.6013 14.296 16.8093 13.8 16.8093 13.16V11.528C16.8093 11.464 16.7773 11.432 16.7133 11.432H15.2493C14.6093 11.432 14.0973 11.608 13.7133 11.96C13.3293 12.296 13.1373 12.792 13.1373 13.448C13.1373 14.024 13.2813 14.456 13.5693 14.744C13.8573 15.032 14.2413 15.176 14.7213 15.176ZM26.0206 4.664C26.4206 4.664 26.7646 4.752 27.0526 4.928C27.1646 4.992 27.2046 5.096 27.1726 5.24L26.8126 7.064C26.7966 7.208 26.7006 7.256 26.5246 7.208C26.3166 7.128 26.0926 7.088 25.8526 7.088C25.7566 7.088 25.6126 7.104 25.4206 7.136C24.9246 7.184 24.5086 7.456 24.1726 7.952C23.8526 8.448 23.6926 9.048 23.6926 9.752V16.76C23.6926 16.92 23.6126 17 23.4526 17H21.6286C21.4686 17 21.3886 16.92 21.3886 16.76V5.024C21.3886 4.864 21.4686 4.784 21.6286 4.784H23.4526C23.6126 4.784 23.6926 4.864 23.6926 5.024V6.416C23.6926 6.464 23.7006 6.496 23.7166 6.512C23.7486 6.512 23.7726 6.488 23.7886 6.44C24.2526 5.256 24.9966 4.664 26.0206 4.664ZM28.8217 17C28.6617 17 28.5817 16.92 28.5817 16.76V0.439999C28.5817 0.279999 28.6617 0.199999 28.8217 0.199999H30.6457C30.8057 0.199999 30.8857 0.279999 30.8857 0.439999V16.76C30.8857 16.92 30.8057 17 30.6457 17H28.8217ZM37.1114 17.192C35.8634 17.192 34.8714 16.848 34.1354 16.16C33.4154 15.456 33.0554 14.528 33.0554 13.376V8.408C33.0554 7.272 33.4234 6.352 34.1594 5.648C34.8954 4.944 35.8794 4.592 37.1114 4.592C38.3594 4.592 39.3514 4.944 40.0874 5.648C40.8234 6.352 41.1914 7.272 41.1914 8.408V13.376C41.1914 14.528 40.8234 15.456 40.0874 16.16C39.3514 16.848 38.3594 17.192 37.1114 17.192ZM37.1114 15.176C37.6234 15.176 38.0474 15 38.3834 14.648C38.7194 14.28 38.8874 13.8 38.8874 13.208V8.552C38.8874 7.976 38.7194 7.504 38.3834 7.136C38.0474 6.768 37.6234 6.584 37.1114 6.584C36.5994 6.584 36.1754 6.768 35.8394 7.136C35.5194 7.504 35.3594 7.976 35.3594 8.552V13.208C35.3594 13.8 35.5194 14.28 35.8394 14.648C36.1754 15 36.5994 15.176 37.1114 15.176ZM45.1798 17C45.0358 17 44.9478 16.928 44.9158 16.784L42.3478 5.048V5C42.3478 4.856 42.4198 4.784 42.5638 4.784H44.3158C44.4758 4.784 44.5638 4.856 44.5798 5L46.0678 13.28C46.0838 13.312 46.0998 13.328 46.1158 13.328C46.1318 13.328 46.1478 13.312 46.1638 13.28L47.6758 5C47.7078 4.856 47.7958 4.784 47.9398 4.784H49.5238C49.6838 4.784 49.7718 4.856 49.7878 5L51.3478 13.28C51.3638 13.312 51.3798 13.328 51.3958 13.328C51.4118 13.328 51.4278 13.312 51.4438 13.28L52.9558 5C52.9878 4.856 53.0758 4.784 53.2198 4.784L54.9478 4.808C55.0278 4.808 55.0838 4.832 55.1158 4.88C55.1638 4.928 55.1798 4.992 55.1638 5.072L52.5718 16.784C52.5558 16.928 52.4678 17 52.3078 17H50.5078C50.3638 17 50.2758 16.928 50.2438 16.784L48.7318 8.912C48.7158 8.88 48.6998 8.864 48.6838 8.864C48.6678 8.864 48.6518 8.88 48.6358 8.912L47.1718 16.784C47.1558 16.928 47.0678 17 46.9078 17H45.1798ZM65.9251 17.192C64.6291 17.192 63.5811 16.8 62.7811 16.016C61.9971 15.216 61.6051 14.16 61.6051 12.848V4.328C61.6051 3.016 61.9971 1.968 62.7811 1.184C63.5811 0.4 64.6291 0.0079999 65.9251 0.0079999C67.2371 0.0079999 68.2851 0.4 69.0691 1.184C69.8691 1.968 70.2691 3.016 70.2691 4.328V4.712C70.2691 4.872 70.1891 4.952 70.0291 4.952L68.2051 5.048C68.0451 5.048 67.9651 4.968 67.9651 4.808V4.184C67.9651 3.528 67.7731 3 67.3891 2.6C67.0211 2.2 66.5331 2 65.9251 2C65.3171 2 64.8291 2.2 64.4611 2.6C64.0931 3 63.9091 3.528 63.9091 4.184V13.016C63.9091 13.672 64.0931 14.2 64.4611 14.6C64.8291 15 65.3171 15.2 65.9251 15.2C66.5331 15.2 67.0211 15 67.3891 14.6C67.7731 14.2 67.9651 13.672 67.9651 13.016V12.392C67.9651 12.232 68.0451 12.152 68.2051 12.152L70.0291 12.248C70.1891 12.248 70.2691 12.328 70.2691 12.488V12.848C70.2691 14.16 69.8691 15.216 69.0691 16.016C68.2851 16.8 67.2371 17.192 65.9251 17.192ZM76.1818 17.192C74.9338 17.192 73.9418 16.848 73.2058 16.16C72.4858 15.456 72.1258 14.528 72.1258 13.376V8.408C72.1258 7.272 72.4938 6.352 73.2298 5.648C73.9658 4.944 74.9498 4.592 76.1818 4.592C77.4298 4.592 78.4218 4.944 79.1578 5.648C79.8938 6.352 80.2618 7.272 80.2618 8.408V13.376C80.2618 14.528 79.8938 15.456 79.1578 16.16C78.4218 16.848 77.4298 17.192 76.1818 17.192ZM76.1818 15.176C76.6938 15.176 77.1178 15 77.4538 14.648C77.7898 14.28 77.9578 13.8 77.9578 13.208V8.552C77.9578 7.976 77.7898 7.504 77.4538 7.136C77.1178 6.768 76.6938 6.584 76.1818 6.584C75.6698 6.584 75.2458 6.768 74.9098 7.136C74.5898 7.504 74.4298 7.976 74.4298 8.552V13.208C74.4298 13.8 74.5898 14.28 74.9098 14.648C75.2458 15 75.6698 15.176 76.1818 15.176ZM87.3856 4.616C88.3936 4.616 89.1616 4.96 89.6896 5.648C90.2336 6.32 90.5056 7.28 90.5056 8.528V16.76C90.5056 16.92 90.4256 17 90.2656 17H88.4416C88.2816 17 88.2016 16.92 88.2016 16.76V8.72C88.2016 8.048 88.0576 7.528 87.7696 7.16C87.4816 6.792 87.0816 6.608 86.5696 6.608C86.0416 6.608 85.6256 6.792 85.3216 7.16C85.0336 7.512 84.8736 8.016 84.8416 8.672C84.8416 8.768 84.8336 8.816 84.8176 8.816V16.76C84.8176 16.92 84.7376 17 84.5776 17H82.7536C82.5936 17 82.5136 16.92 82.5136 16.76V5.024C82.5136 4.864 82.5936 4.784 82.7536 4.784H84.5776C84.7376 4.784 84.8176 4.864 84.8176 5.024V5.672C84.8176 5.704 84.8336 5.728 84.8656 5.744C84.8976 5.744 84.9296 5.72 84.9616 5.672C85.5376 4.968 86.3456 4.616 87.3856 4.616ZM98.393 0.439999C98.393 0.279999 98.473 0.199999 98.633 0.199999H100.457C100.617 0.199999 100.697 0.279999 100.697 0.439999V16.76C100.697 16.92 100.617 17 100.457 17H98.633C98.473 17 98.393 16.92 98.393 16.76V16.376C98.393 16.344 98.377 16.32 98.345 16.304C98.329 16.288 98.305 16.296 98.273 16.328C97.969 16.616 97.625 16.832 97.241 16.976C96.857 17.12 96.473 17.192 96.089 17.192C95.033 17.192 94.193 16.848 93.569 16.16C92.961 15.456 92.657 14.536 92.657 13.4V8.408C92.657 7.224 92.961 6.296 93.569 5.624C94.193 4.936 95.033 4.592 96.089 4.592C96.473 4.592 96.857 4.664 97.241 4.808C97.625 4.952 97.969 5.168 98.273 5.456C98.305 5.488 98.329 5.496 98.345 5.48C98.377 5.464 98.393 5.44 98.393 5.408V0.439999ZM96.689 15.2C97.137 15.2 97.513 15.056 97.817 14.768C98.137 14.464 98.329 14.072 98.393 13.592V8.192C98.329 7.712 98.137 7.328 97.817 7.04C97.513 6.736 97.137 6.584 96.689 6.584C96.177 6.584 95.753 6.768 95.417 7.136C95.097 7.504 94.937 7.976 94.937 8.552V13.232C94.937 13.808 95.097 14.28 95.417 14.648C95.753 15.016 96.177 15.2 96.689 15.2ZM111.057 11.6C111.057 11.76 110.977 11.84 110.817 11.84H105.393C105.329 11.84 105.297 11.872 105.297 11.936V13.232C105.297 13.808 105.457 14.28 105.777 14.648C106.097 15.016 106.513 15.2 107.025 15.2C107.473 15.2 107.849 15.064 108.153 14.792C108.457 14.52 108.649 14.168 108.729 13.736C108.777 13.608 108.865 13.544 108.993 13.544L110.769 13.64C110.849 13.64 110.905 13.664 110.937 13.712C110.985 13.76 111.001 13.816 110.985 13.88C110.873 14.92 110.473 15.736 109.785 16.328C109.113 16.904 108.193 17.192 107.025 17.192C105.793 17.192 104.809 16.848 104.073 16.16C103.353 15.472 102.993 14.552 102.993 13.4V8.408C102.993 7.272 103.353 6.352 104.073 5.648C104.809 4.944 105.793 4.592 107.025 4.592C108.273 4.592 109.257 4.944 109.977 5.648C110.697 6.352 111.057 7.272 111.057 8.408V11.6ZM107.025 6.584C106.513 6.584 106.097 6.768 105.777 7.136C105.457 7.504 105.297 7.976 105.297 8.552V9.824C105.297 9.888 105.329 9.92 105.393 9.92H108.681C108.745 9.92 108.777 9.888 108.777 9.824V8.552C108.777 7.976 108.617 7.504 108.297 7.136C107.977 6.768 107.553 6.584 107.025 6.584ZM118.089 4.616C119.097 4.616 119.865 4.96 120.393 5.648C120.937 6.32 121.209 7.28 121.209 8.528V16.76C121.209 16.92 121.129 17 120.969 17H119.145C118.985 17 118.905 16.92 118.905 16.76V8.72C118.905 8.048 118.761 7.528 118.473 7.16C118.185 6.792 117.785 6.608 117.273 6.608C116.745 6.608 116.329 6.792 116.025 7.16C115.737 7.512 115.577 8.016 115.545 8.672C115.545 8.768 115.537 8.816 115.521 8.816V16.76C115.521 16.92 115.441 17 115.281 17H113.457C113.297 17 113.217 16.92 113.217 16.76V5.024C113.217 4.864 113.297 4.784 113.457 4.784H115.281C115.441 4.784 115.521 4.864 115.521 5.024V5.672C115.521 5.704 115.537 5.728 115.569 5.744C115.601 5.744 115.633 5.72 115.665 5.672C116.241 4.968 117.049 4.616 118.089 4.616ZM127.056 17.144C125.856 17.144 124.904 16.856 124.2 16.28C123.512 15.688 123.168 14.896 123.168 13.904V13.688C123.168 13.528 123.248 13.448 123.408 13.448H125.112C125.272 13.448 125.352 13.528 125.352 13.688V13.856C125.352 14.288 125.52 14.656 125.856 14.96C126.192 15.248 126.608 15.392 127.104 15.392C127.584 15.392 127.968 15.248 128.256 14.96C128.56 14.672 128.712 14.304 128.712 13.856C128.712 13.504 128.608 13.208 128.4 12.968C128.192 12.728 127.944 12.544 127.656 12.416C127.384 12.272 126.96 12.08 126.384 11.84C125.76 11.568 125.24 11.304 124.824 11.048C124.424 10.792 124.064 10.424 123.744 9.944C123.424 9.464 123.264 8.856 123.264 8.12C123.264 7.032 123.6 6.184 124.272 5.576C124.96 4.968 125.88 4.664 127.032 4.664C128.216 4.664 129.144 4.976 129.816 5.6C130.504 6.224 130.848 7.072 130.848 8.144V8.216C130.848 8.376 130.768 8.456 130.608 8.456H128.952C128.792 8.456 128.712 8.376 128.712 8.216V8.048C128.712 7.616 128.56 7.248 128.256 6.944C127.952 6.64 127.56 6.488 127.08 6.488C126.584 6.488 126.192 6.64 125.904 6.944C125.616 7.248 125.472 7.616 125.472 8.048C125.472 8.384 125.568 8.664 125.76 8.888C125.952 9.112 126.184 9.296 126.456 9.44C126.728 9.568 127.16 9.76 127.752 10.016C128.408 10.304 128.952 10.584 129.384 10.856C129.816 11.112 130.192 11.48 130.512 11.96C130.848 12.44 131.016 13.04 131.016 13.76C131.016 14.8 130.656 15.624 129.936 16.232C129.232 16.84 128.272 17.144 127.056 17.144ZM140.705 11.6C140.705 11.76 140.625 11.84 140.465 11.84H135.041C134.977 11.84 134.945 11.872 134.945 11.936V13.232C134.945 13.808 135.105 14.28 135.425 14.648C135.745 15.016 136.161 15.2 136.673 15.2C137.121 15.2 137.497 15.064 137.801 14.792C138.105 14.52 138.297 14.168 138.377 13.736C138.425 13.608 138.513 13.544 138.641 13.544L140.417 13.64C140.497 13.64 140.553 13.664 140.585 13.712C140.633 13.76 140.649 13.816 140.633 13.88C140.521 14.92 140.121 15.736 139.433 16.328C138.761 16.904 137.841 17.192 136.673 17.192C135.441 17.192 134.457 16.848 133.721 16.16C133.001 15.472 132.641 14.552 132.641 13.4V8.408C132.641 7.272 133.001 6.352 133.721 5.648C134.457 4.944 135.441 4.592 136.673 4.592C137.921 4.592 138.905 4.944 139.625 5.648C140.345 6.352 140.705 7.272 140.705 8.408V11.6ZM136.673 6.584C136.161 6.584 135.745 6.768 135.425 7.136C135.105 7.504 134.945 7.976 134.945 8.552V9.824C134.945 9.888 134.977 9.92 135.041 9.92H138.329C138.393 9.92 138.425 9.888 138.425 9.824V8.552C138.425 7.976 138.265 7.504 137.945 7.136C137.625 6.768 137.201 6.584 136.673 6.584ZM148.385 0.439999C148.385 0.279999 148.465 0.199999 148.625 0.199999H150.449C150.609 0.199999 150.689 0.279999 150.689 0.439999V16.76C150.689 16.92 150.609 17 150.449 17H148.625C148.465 17 148.385 16.92 148.385 16.76V16.376C148.385 16.344 148.369 16.32 148.337 16.304C148.321 16.288 148.297 16.296 148.265 16.328C147.961 16.616 147.617 16.832 147.233 16.976C146.849 17.12 146.465 17.192 146.081 17.192C145.025 17.192 144.185 16.848 143.561 16.16C142.953 15.456 142.649 14.536 142.649 13.4V8.408C142.649 7.224 142.953 6.296 143.561 5.624C144.185 4.936 145.025 4.592 146.081 4.592C146.465 4.592 146.849 4.664 147.233 4.808C147.617 4.952 147.961 5.168 148.265 5.456C148.297 5.488 148.321 5.496 148.337 5.48C148.369 5.464 148.385 5.44 148.385 5.408V0.439999ZM146.681 15.2C147.129 15.2 147.505 15.056 147.809 14.768C148.129 14.464 148.321 14.072 148.385 13.592V8.192C148.321 7.712 148.129 7.328 147.809 7.04C147.505 6.736 147.129 6.584 146.681 6.584C146.169 6.584 145.745 6.768 145.409 7.136C145.089 7.504 144.929 7.976 144.929 8.552V13.232C144.929 13.808 145.089 14.28 145.409 14.648C145.745 15.016 146.169 15.2 146.681 15.2Z" fill="white"/>
</svg>
